<svg width="83" height="83" viewBox="0 0 83 83" fill="none" xmlns="http://www.w3.org/2000/svg">
<g opacity="0.9">
<path d="M44.3827 2.0882L44.4749 0.758054L42.6674 0.632765L43.0853 2.39571L44.3827 2.0882ZM78.8032 27.9823L79.2633 29.2338L80.5128 28.7744L80.0553 27.5241L78.8032 27.9823ZM44.6036 3.02048L43.3063 3.328V3.328L44.6036 3.02048ZM45.2521 4.22836L44.2789 5.13981L44.2789 5.13981L45.2521 4.22836ZM46.6625 5.73421L45.6893 6.64566V6.64566L46.6625 5.73421ZM47.222 8.46917L48.4749 8.92519V8.92519L47.222 8.46917ZM46.6486 10.0447L45.3956 9.58869L45.3956 9.58869L46.6486 10.0447ZM48.2423 13.4626L48.6984 12.2097L48.6984 12.2097L48.2423 13.4626ZM49.3191 13.8545L48.8631 15.1074L48.8631 15.1074L49.3191 13.8545ZM51.0584 16.6458L49.7327 16.5031L51.0584 16.6458ZM50.5336 21.5202L51.8593 21.663V21.6629L50.5336 21.5202ZM51.2387 23.6286L50.2655 24.54L50.2655 24.54L51.2387 23.6286ZM55.4186 28.0915L54.4454 29.003V29.003L55.4186 28.0915ZM57.8877 28.8835L57.6263 27.5761H57.6263L57.8877 28.8835ZM67.2636 27.0091L67.525 28.3165L67.525 28.3165L67.2636 27.0091ZM68.1824 26.9869L67.9844 28.3054H67.9844L68.1824 26.9869ZM76.9701 28.3066L77.1681 26.988L76.9701 28.3066ZM78.2863 28.1724L78.7464 29.4238L78.2863 28.1724ZM19.6037 74.5237L18.862 75.6317L19.5764 76.1098L20.3067 75.6566L19.6037 74.5237ZM22.6114 6.83541L23.5198 5.85942L22.8153 5.20363L21.971 5.66594L22.6114 6.83541ZM25.577 9.59566L26.4854 8.61968L26.4854 8.61968L25.577 9.59566ZM26.1093 10.2857L27.2839 9.65471V9.65471L26.1093 10.2857ZM28.0276 13.8566L26.853 14.4876L26.8936 14.5632L26.9436 14.633L28.0276 13.8566ZM31.7834 19.1003L30.6994 19.8767L30.6994 19.8767L31.7834 19.1003ZM32.4382 26.1726L31.183 26.6221L31.183 26.6221L32.4382 26.1726ZM33.6828 29.6478L32.4276 30.0974L32.4276 30.0974L33.6828 29.6478ZM32.5783 32.8128L33.2813 33.9457L32.5783 32.8128ZM28.2483 35.4996L27.5453 34.3667L27.5452 34.3667L28.2483 35.4996ZM27.8374 35.8135L26.929 34.8376V34.8376L27.8374 35.8135ZM23.773 39.5966L22.8646 38.6206L23.773 39.5966ZM18.5661 44.443L17.6577 43.467H17.6577L18.5661 44.443ZM17.8076 47.0867L19.0953 46.7409H19.0953L17.8076 47.0867ZM19.32 52.7176L18.0323 53.0635V53.0635L19.32 52.7176ZM20.0785 53.9779L20.987 53.0019L20.987 53.0019L20.0785 53.9779ZM23.2981 56.9745L24.2065 55.9986L24.2065 55.9985L23.2981 56.9745ZM23.9918 58.0274L25.247 57.5779L25.247 57.5779L23.9918 58.0274ZM25.9003 63.3566L24.645 63.8061L25.9003 63.3566ZM27.301 67.2678L26.0457 67.7174L27.301 67.2678ZM26.1965 70.4328L25.4935 69.2998L25.4935 69.2998L26.1965 70.4328ZM39.7799 46.8285L38.883 45.8419L39.7799 46.8285ZM44.4445 42.588L45.3414 43.5745L45.3414 43.5745L44.4445 42.588ZM39.4233 50.3786L38.3481 51.1671V51.1671L39.4233 50.3786ZM42.3877 54.421L41.3125 55.2095L42.3877 54.421ZM42.8717 56.4119L41.5545 56.205V56.205L42.8717 56.4119ZM41.8912 62.6511L43.2084 62.858V62.858L41.8912 62.6511ZM42.0219 63.983L40.7701 64.442L40.7701 64.4421L42.0219 63.983ZM42.1073 64.2159L43.3591 63.7569L43.3591 63.7569L42.1073 64.2159ZM45.579 65.7826L45.095 64.5403L45.095 64.5403L45.579 65.7826ZM51.0736 63.6419L50.5895 62.3995H50.5895L51.0736 63.6419ZM52.3311 62.6261L53.4439 63.3605V63.3605L52.3311 62.6261ZM55.5168 57.7993L56.6296 58.5337L56.6296 58.5337L55.5168 57.7993ZM55.8022 57.4388L54.8321 56.5241L54.8321 56.5242L55.8022 57.4388ZM61.0609 51.8614L60.0908 50.9467L60.0908 50.9467L61.0609 51.8614ZM60.6229 47.8288L61.374 46.7271L61.374 46.7271L60.6229 47.8288ZM58.1639 46.1522L58.915 45.0505L58.8855 45.0304L58.855 45.0119L58.1639 46.1522ZM54.7536 44.0853L55.4446 42.945L55.4446 42.945L54.7536 44.0853ZM53.9624 43.7655L54.2579 42.4653L54.2579 42.4653L53.9624 43.7655ZM49.3439 42.7158L48.9572 43.9918L49.0024 44.0055L49.0484 44.016L49.3439 42.7158ZM47.0117 42.0091L46.625 43.2851H46.625L47.0117 42.0091ZM44.2905 3.41834C59.627 4.48144 72.4803 14.5848 77.551 28.4406L80.0553 27.5241C74.6323 12.7059 60.8879 1.89578 44.4749 0.758054L44.2905 3.41834ZM43.0853 2.39571L43.3063 3.328L45.901 2.71297L45.6801 1.78068L43.0853 2.39571ZM43.3063 3.328C43.4671 4.00638 43.8024 4.63096 44.2789 5.13981L46.2253 3.31691C46.0664 3.14729 45.9546 2.9391 45.901 2.71297L43.3063 3.328ZM44.2789 5.13981L45.6893 6.64566L47.6356 4.82276L46.2253 3.31691L44.2789 5.13981ZM45.6893 6.64566C46.0328 7.01237 46.1409 7.54101 45.9691 8.01314L48.4749 8.92519C48.9905 7.50881 48.666 5.92288 47.6356 4.82276L45.6893 6.64566ZM45.9691 8.01314L45.3956 9.58869L47.9015 10.5007L48.4749 8.92519L45.9691 8.01314ZM45.3956 9.58869C44.6401 11.6646 45.7104 13.96 47.7863 14.7155L48.6984 12.2097C48.0064 11.9578 47.6496 11.1927 47.9015 10.5007L45.3956 9.58869ZM47.7863 14.7155L48.8631 15.1074L49.7751 12.6016L48.6984 12.2097L47.7863 14.7155ZM48.8631 15.1074C49.4395 15.3172 49.7984 15.8932 49.7327 16.5031L52.384 16.7885C52.581 14.9589 51.5043 13.231 49.7751 12.6016L48.8631 15.1074ZM49.7327 16.5031L49.208 21.3775L51.8593 21.6629L52.384 16.7885L49.7327 16.5031ZM49.208 21.3775C49.0833 22.5354 49.4694 23.6901 50.2655 24.54L52.2118 22.7171C51.9465 22.4338 51.8177 22.0489 51.8593 21.663L49.208 21.3775ZM50.2655 24.54L54.4454 29.003L56.3918 27.18L52.2118 22.7171L50.2655 24.54ZM54.4454 29.003C55.3914 30.0129 56.7922 30.4623 58.1491 30.191L57.6263 27.5761C57.174 27.6665 56.7071 27.5167 56.3918 27.18L54.4454 29.003ZM58.1491 30.191L67.525 28.3165L67.0022 25.7016L57.6263 27.5761L58.1491 30.191ZM67.525 28.3165C67.6763 28.2863 67.8317 28.2825 67.9844 28.3054L68.3804 25.6684C67.9225 25.5996 67.4562 25.6108 67.0022 25.7016L67.525 28.3165ZM67.9844 28.3054L76.7721 29.6251L77.1681 26.988L68.3804 25.6684L67.9844 28.3054ZM76.7721 29.6251C77.4366 29.7249 78.1156 29.6557 78.7464 29.4238L77.8262 26.9209C77.616 26.9982 77.3896 27.0213 77.1681 26.988L76.7721 29.6251ZM78.7464 29.4238L79.2633 29.2338L78.3431 26.7309L77.8262 26.9209L78.7464 29.4238ZM20.3454 73.4157C10.0868 66.5487 3.33724 54.8584 3.33724 41.5922H0.670573C0.670573 55.7855 7.8955 68.2908 18.862 75.6317L20.3454 73.4157ZM3.33724 41.5922C3.33724 27.1102 11.3815 14.5051 23.2518 8.00488L21.971 5.66594C9.28061 12.6152 0.670573 26.0973 0.670573 41.5922H3.33724ZM26.4854 8.61968L23.5198 5.85942L21.703 7.8114L24.6686 10.5717L26.4854 8.61968ZM27.2839 9.65471C27.0763 9.26825 26.8065 8.91857 26.4854 8.61968L24.6686 10.5716C24.7756 10.6713 24.8655 10.7878 24.9347 10.9167L27.2839 9.65471ZM29.2021 13.2256L27.2839 9.65471L24.9347 10.9167L26.853 14.4876L29.2021 13.2256ZM32.8673 18.3239L29.1115 13.0802L26.9436 14.633L30.6994 19.8767L32.8673 18.3239ZM33.6154 20.6531C33.6154 19.8176 33.3538 19.0031 32.8673 18.3239L30.6994 19.8767C30.8616 20.1031 30.9488 20.3746 30.9488 20.6531H33.6154ZM33.6154 25.2735V20.6531H30.9488V25.2735H33.6154ZM33.6935 25.723C33.6418 25.5788 33.6154 25.4267 33.6154 25.2735H30.9488C30.9488 25.7332 31.028 26.1894 31.183 26.6221L33.6935 25.723ZM34.9381 29.1983L33.6935 25.723L31.183 26.6221L32.4276 30.0974L34.9381 29.1983ZM33.2813 33.9457C34.8835 32.9516 35.5738 30.9735 34.9381 29.1983L32.4276 30.0974C32.6395 30.6891 32.4094 31.3485 31.8753 31.6798L33.2813 33.9457ZM28.9513 36.6326L33.2813 33.9457L31.8753 31.6798L27.5453 34.3667L28.9513 36.6326ZM28.7459 36.7895C28.8091 36.7307 28.8779 36.6781 28.9513 36.6326L27.5452 34.3667C27.3251 34.5033 27.1187 34.661 26.929 34.8376L28.7459 36.7895ZM24.6814 40.5726L28.7459 36.7895L26.929 34.8376L22.8646 38.6206L24.6814 40.5726ZM19.4745 45.419L24.6814 40.5726L22.8646 38.6206L17.6577 43.467L19.4745 45.419ZM19.0953 46.7409C18.9672 46.264 19.1131 45.7554 19.4745 45.419L17.6577 43.467C16.5734 44.4762 16.1356 46.002 16.5199 47.4326L19.0953 46.7409ZM20.6077 52.3718L19.0953 46.7409L16.5199 47.4326L18.0323 53.0635L20.6077 52.3718ZM20.987 53.0019C20.804 52.8316 20.6725 52.6132 20.6077 52.3718L18.0323 53.0635C18.2269 53.7878 18.6211 54.4429 19.1701 54.9539L20.987 53.0019ZM24.2065 55.9985L20.987 53.0019L19.1701 54.9539L22.3897 57.9505L24.2065 55.9985ZM25.247 57.5779C25.0314 56.9758 24.6746 56.4342 24.2065 55.9986L22.3897 57.9505C22.5457 58.0958 22.6646 58.2763 22.7365 58.477L25.247 57.5779ZM27.1556 62.907L25.247 57.5779L22.7365 58.477L24.645 63.8061L27.1556 62.907ZM28.5563 66.8183L27.1556 62.907L24.645 63.8061L26.0457 67.7174L28.5563 66.8183ZM26.8995 71.5657C28.5017 70.5716 29.192 68.5934 28.5563 66.8183L26.0457 67.7174C26.2577 68.3091 26.0275 68.9685 25.4935 69.2998L26.8995 71.5657ZM20.3067 75.6566L26.8995 71.5657L25.4935 69.2998L18.9007 73.3907L20.3067 75.6566ZM40.6768 47.8151L45.3414 43.5745L43.5476 41.6014L38.883 45.8419L40.6768 47.8151ZM40.4985 49.5902C40.0951 49.04 40.172 48.274 40.6768 47.8151L38.883 45.8419C37.3686 47.2187 37.1377 49.5166 38.3481 51.1671L40.4985 49.5902ZM43.4629 53.6325L40.4985 49.5901L38.3481 51.1671L41.3125 55.2095L43.4629 53.6325ZM44.1888 56.6189C44.3542 55.5665 44.0929 54.4916 43.4629 53.6325L41.3125 55.2095C41.5225 55.4959 41.6096 55.8542 41.5545 56.205L44.1888 56.6189ZM43.2084 62.858L44.1888 56.6189L41.5545 56.205L40.5741 62.4441L43.2084 62.858ZM43.2737 63.524C43.1957 63.3112 43.1732 63.082 43.2084 62.858L40.5741 62.4441C40.4685 63.1159 40.5359 63.8035 40.7701 64.442L43.2737 63.524ZM43.3591 63.7569L43.2737 63.524L40.7701 64.4421L40.8554 64.6749L43.3591 63.7569ZM45.095 64.5403C44.3991 64.8114 43.6162 64.4581 43.3591 63.7569L40.8554 64.6749C41.6268 66.7785 43.9754 67.8384 46.0631 67.025L45.095 64.5403ZM50.5895 62.3995L45.095 64.5403L46.0631 67.025L51.5576 64.8843L50.5895 62.3995ZM51.2183 61.8916C51.0663 62.1219 50.8466 62.2994 50.5895 62.3995L51.5576 64.8843C52.3289 64.5838 52.988 64.0514 53.4439 63.3605L51.2183 61.8916ZM54.404 57.0648L51.2183 61.8916L53.4439 63.3605L56.6296 58.5337L54.404 57.0648ZM54.8321 56.5242C54.6741 56.6917 54.5309 56.8726 54.404 57.0648L56.6296 58.5337C56.6719 58.4697 56.7197 58.4094 56.7723 58.3535L54.8321 56.5242ZM60.0908 50.9467L54.8321 56.5241L56.7723 58.3535L62.031 52.7761L60.0908 50.9467ZM59.8718 48.9304C60.5492 49.3922 60.6532 50.3502 60.0908 50.9467L62.031 52.7761C63.7183 50.9866 63.4061 48.1126 61.374 46.7271L59.8718 48.9304ZM57.4128 47.2538L59.8718 48.9304L61.374 46.7271L58.915 45.0505L57.4128 47.2538ZM54.0625 45.2255L57.4728 47.2924L58.855 45.0119L55.4446 42.945L54.0625 45.2255ZM53.6669 45.0656C53.8065 45.0974 53.9401 45.1514 54.0625 45.2255L55.4446 42.945C55.0774 42.7224 54.6767 42.5605 54.2579 42.4653L53.6669 45.0656ZM49.0484 44.016L53.6669 45.0656L54.2579 42.4653L49.6394 41.4156L49.0484 44.016ZM46.625 43.2851L48.9572 43.9918L49.7306 41.4398L47.3984 40.733L46.625 43.2851ZM45.3414 43.5745C45.6886 43.259 46.176 43.149 46.625 43.2851L47.3984 40.733C46.0514 40.3249 44.5891 40.6546 43.5476 41.6014L45.3414 43.5745Z" fill="white"/>
<circle cx="41.6039" cy="41.5922" r="39.6" stroke="white" stroke-width="2.66667"/>
</g>
</svg>
