<svg width="80" height="80" viewBox="0 0 80 80" fill="none" xmlns="http://www.w3.org/2000/svg">
<path opacity="0.9" d="M70.72 40V73.0667C70.72 76.0122 68.3322 78.4 65.3866 78.4H14.6133C11.6678 78.4 9.27998 76.0122 9.27998 73.0667V40M40 78.4V20.8M40 20.8H22.72C20.1739 20.8 17.7321 19.7886 15.9318 17.9883C14.1314 16.1879 13.12 13.7461 13.12 11.2C13.12 8.65396 14.1314 6.21216 15.9318 4.41181C17.7321 2.61146 20.1739 1.60004 22.72 1.60004C36.16 1.60004 40 20.8 40 20.8ZM40 20.8H57.28C59.8261 20.8 62.2679 19.7886 64.0682 17.9883C65.8686 16.1879 66.88 13.7461 66.88 11.2C66.88 8.65396 65.8686 6.21216 64.0682 4.41181C62.2679 2.61146 59.8261 1.60004 57.28 1.60004C43.84 1.60004 40 20.8 40 20.8ZM6.93331 40H73.0666C76.0122 40 78.4 37.6122 78.4 34.6667V26.1334C78.4 23.1879 76.0122 20.8 73.0666 20.8H6.93331C3.98779 20.8 1.59998 23.1878 1.59998 26.1334V34.6667C1.59998 37.6122 3.98779 40 6.93331 40Z" stroke="white" stroke-width="2.66667" stroke-linecap="round" stroke-linejoin="round"/>
</svg>
