<svg width="130" height="40" viewBox="0 0 130 40" fill="none" xmlns="http://www.w3.org/2000/svg">
<path fill-rule="evenodd" clip-rule="evenodd" d="M14.2629 22.5866C14.08 23.1432 13.7852 23.5498 13.3786 23.807C13.0134 24.0482 12.4897 24.2105 11.8091 24.2932C11.0948 24.3935 9.97388 24.4425 8.44568 24.4425C7.31637 24.4425 6.38996 24.3966 5.66797 24.3055C4.98732 24.2144 4.47588 24.0773 4.13594 23.8943C3.89477 23.7534 3.6957 23.5873 3.53798 23.3967C3.37184 23.1968 3.23862 22.9564 3.13909 22.6739C2.92318 22.0844 2.81523 21.1626 2.81523 19.9084C2.81523 18.8542 2.91476 18.0441 3.11382 17.4799C3.30523 16.9393 3.59617 16.5328 3.98588 16.2587C4.335 16.0259 4.87095 15.8644 5.59294 15.7725C6.4068 15.673 7.60272 15.6232 9.18068 15.6232C10.1852 15.6232 11.0572 15.673 11.7968 15.7725C12.4691 15.872 12.9552 16.0091 13.2538 16.1837C13.4943 16.3245 13.6941 16.4868 13.8518 16.6698C14.0264 16.8773 14.1588 17.1139 14.2507 17.3796C14.4666 17.9691 14.5746 18.8741 14.5746 20.0953C14.5746 21.1748 14.4704 22.0055 14.2629 22.5866ZM17.0659 16.2832C16.8829 15.7855 16.6219 15.3415 16.2811 14.9502C15.9404 14.5521 15.5339 14.2152 15.06 13.9419C14.4375 13.5767 13.6566 13.3271 12.7187 13.1939C11.78 13.0698 10.4432 13.0078 8.70752 13.0078C7.69383 13.0078 6.81795 13.0361 6.07911 13.0943C5.31501 13.1609 4.7339 13.2559 4.335 13.3814C3.87792 13.5223 3.47137 13.726 3.11382 13.9916C3.03113 14.0583 2.94768 14.1325 2.86499 14.2152V13.5928C2.86499 13.4764 2.82365 13.3768 2.74019 13.2942C2.65751 13.2107 2.5618 13.1694 2.45385 13.1694H0.423394C0.307018 13.1694 0.203658 13.2107 0.111782 13.2942C0.0375159 13.3692 0 13.468 0 13.5928V31.1318C0 31.2559 0.0375159 31.3562 0.111782 31.4312C0.203658 31.5139 0.307018 31.5552 0.423394 31.5552H2.45385C2.5618 31.5552 2.65751 31.5139 2.74019 31.4312C2.82365 31.3477 2.86499 31.2474 2.86499 31.1318V25.9125C3.29681 26.2777 3.80366 26.5434 4.38477 26.7095C4.79209 26.8343 5.35253 26.9255 6.06686 26.9836C6.74751 27.0418 7.55295 27.0709 8.48319 27.0709C9.77022 27.0709 10.8666 27.0334 11.7716 26.9584C12.7102 26.8841 13.4368 26.7677 13.9513 26.61C14.5079 26.4439 15.0102 26.1905 15.4589 25.8497C15.9152 25.5014 16.3018 25.078 16.6173 24.5796C16.9411 24.0896 17.1815 23.4503 17.34 22.6617C17.4977 21.9221 17.5766 21.05 17.5766 20.0455C17.5766 18.4423 17.4059 17.1889 17.0659 16.2832Z" fill="#0D7FC3"/>
<path fill-rule="evenodd" clip-rule="evenodd" d="M33.3086 23.602C33.1838 23.8011 32.984 23.9549 32.7107 24.0629C32.4113 24.1961 31.9175 24.2957 31.2277 24.3615C30.5639 24.4197 29.6757 24.4488 28.5625 24.4488C26.5941 24.4488 25.1945 24.3998 24.3645 24.2995C24.0736 24.275 23.8539 24.2367 23.7046 24.1869L23.53 24.1379C23.2888 24.0216 23.1104 23.8592 22.9941 23.6518C22.8785 23.4274 22.8203 23.1411 22.8203 22.792C22.8203 22.4267 22.87 22.1236 22.9688 21.8824C23.0775 21.6672 23.2222 21.5049 23.406 21.397C23.5384 21.3304 23.6877 21.2806 23.8539 21.2477C24.0698 21.1979 24.34 21.1558 24.6639 21.1229C25.3032 21.0647 26.4654 21.0364 28.1514 21.0364C29.3473 21.0364 30.2898 21.0731 30.9788 21.1481C31.71 21.214 32.2536 21.3143 32.6112 21.4467C32.9098 21.5631 33.1341 21.7254 33.2834 21.9329C33.425 22.132 33.4955 22.4022 33.4955 22.7422C33.4955 23.0829 33.4327 23.3692 33.3086 23.602ZM36.46 17.6974C36.4347 17.199 36.3811 16.7542 36.2977 16.3652C36.1484 15.6746 35.8207 15.069 35.3138 14.5461C34.7159 13.9313 33.8859 13.5117 32.8225 13.2874C32.324 13.1886 31.6725 13.1136 30.867 13.0638C30.0111 13.0049 29.0609 12.9766 28.0143 12.9766C26.5856 12.9766 25.3905 13.0386 24.4266 13.1634C23.4473 13.2958 22.6748 13.4949 22.1098 13.7606C21.5202 14.0515 21.08 14.4627 20.7898 14.9948C20.4989 15.5177 20.3534 16.1524 20.3534 16.8997L20.3787 17.5106C20.3955 17.6102 20.4407 17.6974 20.5157 17.7717C20.5984 17.8467 20.6941 17.8843 20.8021 17.8843H22.9198C23.0438 17.8843 23.1441 17.8467 23.2184 17.7717C23.3019 17.689 23.3432 17.5849 23.3432 17.4609V17.2863C23.3432 16.9127 23.406 16.6179 23.53 16.402C23.638 16.2106 23.8125 16.0659 24.0529 15.9656C24.1693 15.9158 24.3515 15.8668 24.6011 15.8163L25.4854 15.6915C26.1829 15.6341 27.0756 15.605 28.1636 15.605C29.0027 15.605 29.7171 15.6256 30.3066 15.667C30.8793 15.7083 31.3486 15.7627 31.7138 15.8285C32.0706 15.912 32.3539 16.0154 32.5614 16.1402C32.8018 16.2734 32.9886 16.4273 33.1218 16.6011C33.288 16.8001 33.4128 17.0742 33.4955 17.4233C33.5866 17.8054 33.6325 18.2663 33.6325 18.8061V19.329C33.5246 19.2379 33.4128 19.1552 33.2964 19.0802C32.9304 18.8643 32.5239 18.7104 32.0752 18.6193C31.6602 18.5527 31.0041 18.4945 30.1068 18.4447C29.2271 18.4034 28.1269 18.3827 26.8061 18.3827C25.8016 18.3827 24.9709 18.4034 24.3148 18.4447C23.6426 18.486 23.0645 18.5527 22.5837 18.6438C22.2928 18.6935 22.0309 18.7686 21.7989 18.8681V18.8811C21.4329 19.0304 21.1259 19.2134 20.8771 19.4285C20.6191 19.6613 20.4078 19.9392 20.2416 20.2631C19.943 20.8695 19.793 21.7002 19.793 22.7544C19.793 23.6104 19.8925 24.2957 20.0923 24.8102C20.2914 25.3331 20.652 25.7779 21.1757 26.1431C21.4245 26.3422 21.7446 26.5083 22.135 26.6415C22.4918 26.7663 22.903 26.8575 23.3685 26.9156H23.3799C23.8041 26.9646 24.4266 27.0068 25.2489 27.0397C26.2955 27.0649 27.2548 27.0772 28.1269 27.0772C29.0732 27.0772 29.9161 27.0519 30.655 27.0029C31.3946 26.9363 31.9343 26.8575 32.275 26.7663C32.7895 26.6163 33.2497 26.3629 33.657 26.0061L33.6325 26.4792C33.6325 26.5872 33.6739 26.6913 33.7565 26.7908C33.8484 26.8735 33.9518 26.9156 34.0681 26.9156H36.0986C36.2066 26.9156 36.3015 26.8735 36.3857 26.7908C36.4768 26.7074 36.522 26.6079 36.522 26.4915V19.6904C36.522 18.9179 36.5013 18.2541 36.46 17.6974Z" fill="#0D7FC3"/>
<path fill-rule="evenodd" clip-rule="evenodd" d="M40.8087 13.3832L46.8135 24.1832L52.3559 13.3962C52.4394 13.2469 52.5642 13.1719 52.7303 13.1719H55.1214C55.2791 13.1719 55.4001 13.2377 55.4827 13.3717C55.5654 13.5202 55.57 13.6573 55.4958 13.7821L49.2176 25.778V25.7902C48.4451 27.2442 47.8471 28.2739 47.4237 28.8803C46.9666 29.5189 46.4559 30.038 45.8917 30.4369C45.3603 30.8021 44.7784 31.0555 44.1476 31.1964C43.558 31.3212 42.7105 31.3878 41.6064 31.3962C41.1494 31.3962 40.7551 31.3878 40.4228 31.3709C40.3148 31.3625 40.2237 31.3212 40.1487 31.2469C40.066 31.1634 40.0239 31.0639 40.0239 30.9475V29.0786C40.0239 28.9546 40.0698 28.8505 40.1609 28.7678C40.2528 28.6927 40.3646 28.6598 40.4978 28.6682C40.8385 28.7012 41.1371 28.7172 41.3944 28.7172C42.0421 28.7172 42.5903 28.6767 43.0389 28.5932C43.4784 28.5182 43.8153 28.4148 44.048 28.2816V28.2694C44.2639 28.153 44.5089 27.9286 44.7823 27.5964C44.94 27.3973 45.1069 27.1607 45.2807 26.8866C45.1482 26.8698 45.0357 26.7993 44.9446 26.6745L37.6948 13.8073C37.6121 13.6665 37.6121 13.5202 37.6948 13.3717C37.7775 13.2377 37.8985 13.1719 38.0562 13.1719H40.448C40.605 13.1719 40.726 13.2423 40.8087 13.3832Z" fill="#0D7FC3"/>
<path d="M48.4992 35.0001H48.9647C54.5706 35.0001 59.329 34.4856 63.2399 33.4558C63.5224 33.3723 63.8011 33.2942 64.0744 33.2192C69.4223 31.6489 72.383 29.1369 72.9565 25.6823C73.1471 24.5615 72.7153 23.3617 71.661 22.0831C71.1611 21.4767 70.4445 20.7808 69.5196 20.0006H69.5203C69.0732 19.6515 68.5801 19.2817 68.0396 18.8897C66.013 17.4196 64.7305 16.4358 64.1908 15.9374C63.0615 14.8915 62.5585 13.9904 62.6833 13.2347C63.1564 10.3866 66.4823 8.23513 72.661 6.78196C73.3255 6.62424 74.023 6.47495 74.7534 6.3333C74.8629 6.31263 74.9716 6.29579 75.0811 6.27512C75.6408 6.17099 76.1989 6.07222 76.7563 5.98188C77.1912 5.91221 77.6245 5.85019 78.0579 5.78971C78.2654 5.75908 78.4721 5.72922 78.6788 5.70166C79.2255 5.62969 79.7706 5.56461 80.315 5.50566C80.3816 5.498 80.449 5.49111 80.5156 5.48422C81.1166 5.42067 81.7168 5.36478 82.3156 5.31731V5.31272C82.3171 5.31195 82.314 5.31731 82.3156 5.31731C82.4013 5.31731 82.4756 5.24228 82.4756 5.15653C82.4756 5.07001 82.4059 5.00034 82.3202 5.00034C82.3171 5.00034 82.3217 4.99957 82.3202 5.00034C82.1709 4.99957 82.0216 5.00034 81.8661 5.00034H81.8577C81.8531 5.00034 81.8501 5.00111 81.8455 5.00111C81.7582 5.00111 81.6763 5.0034 81.5897 5.00417C80.9803 5.0057 80.377 5.01106 79.7874 5.02484C79.4483 5.03326 79.1213 5.04934 78.7883 5.06159C78.4621 5.07308 78.1291 5.0815 77.8091 5.09758C73.9227 5.29051 70.5126 5.77286 67.5795 6.54538C67.2969 6.62884 67.019 6.70693 66.7442 6.78196C61.397 8.35151 58.4363 10.8635 57.8628 14.3181C57.6714 15.4397 58.104 16.6395 59.1583 17.9181C59.6582 18.5245 60.3749 19.2196 61.2998 20.0006H61.299C61.7461 20.3497 62.2392 20.7195 62.7797 21.1115C64.8056 22.5808 66.0888 23.5654 66.6285 24.063C67.7579 25.1096 68.2609 26.0108 68.1361 26.7665C67.6629 29.6146 64.337 31.7653 58.1584 33.2192C57.4938 33.3769 56.7963 33.5262 56.0659 33.6679C55.9564 33.6885 55.8469 33.7054 55.7382 33.7253C55.1785 33.8294 54.6204 33.929 54.0638 34.0193C53.6281 34.089 53.1948 34.1502 52.7614 34.2115C52.5547 34.2413 52.3472 34.272 52.1405 34.2995C51.5939 34.3715 51.0487 34.4366 50.5044 34.4955C50.4378 34.5024 50.3704 34.5101 50.303 34.517C49.7027 34.5797 48.5038 34.6839 48.4992 34.6839C48.4134 34.6839 48.3438 34.7589 48.3438 34.8446C48.3438 34.9304 48.4134 35.0001 48.4992 35.0001Z" fill="#F37520"/>
<path d="M78.3776 18.3274C78.435 17.9201 78.5307 17.5587 78.6632 17.2433C78.8132 16.8697 79.0207 16.5795 79.2864 16.3712L79.2994 16.359C79.6394 16.0933 80.1171 15.9103 80.7311 15.8108C81.4126 15.686 82.3972 15.624 83.6834 15.624C85.1787 15.624 86.3034 15.686 87.0591 15.8108C87.7895 15.9356 88.3377 16.1431 88.7037 16.434C88.9693 16.6415 89.173 16.924 89.3139 17.2808C89.4302 17.5878 89.5053 17.9369 89.5382 18.3274H78.3776ZM92.5157 20.7935C92.6068 20.7108 92.652 20.6113 92.652 20.4942C92.6275 18.9415 92.5241 17.7746 92.3412 16.9945C92.1498 16.2051 91.7807 15.4953 91.2325 14.8645C90.5756 14.1172 89.7128 13.6188 88.6416 13.37C88.1432 13.2452 87.4786 13.1533 86.6487 13.0951C85.8264 13.0369 84.8587 13.0078 83.7462 13.0078C82.5419 13.0078 81.5328 13.0499 80.7189 13.1326C79.8721 13.2076 79.1784 13.3317 78.6387 13.5062C78.0744 13.6892 77.5928 13.9511 77.1939 14.291C76.779 14.6233 76.4252 15.0429 76.1351 15.5497C75.8357 16.0642 75.6114 16.7081 75.4621 17.4806C75.3204 18.211 75.25 19.0747 75.25 20.0708C75.25 21.4749 75.4169 22.6624 75.7484 23.634C76.1144 24.6301 76.658 25.3858 77.3807 25.901C78.0116 26.3413 78.9166 26.6483 80.0964 26.8229C81.2755 26.9882 82.9362 27.0717 85.0784 27.0717C86.3991 27.0717 87.5284 26.9974 88.4671 26.8474C89.4471 26.6728 90.2188 26.424 90.7839 26.1001C91.3818 25.7433 91.8297 25.2617 92.1291 24.6554C92.4369 24.0658 92.5984 23.3515 92.6153 22.5124C92.6153 22.3883 92.5731 22.288 92.4905 22.2138C92.407 22.1303 92.3121 22.089 92.2041 22.089H90.0611C89.9455 22.089 89.8498 22.1219 89.7748 22.1885C89.6997 22.2719 89.6546 22.3631 89.6377 22.4626C89.604 22.7704 89.555 23.0192 89.4884 23.2106C89.4302 23.4013 89.3598 23.5421 89.2763 23.634C89.2763 23.6424 89.2725 23.6463 89.2641 23.6463C89.1232 23.7871 88.9571 23.9035 88.7657 23.9946C88.5421 24.111 88.2803 24.1983 87.9809 24.2565C87.3332 24.3813 86.2912 24.4433 84.8548 24.4433C83.9659 24.4433 83.1398 24.431 82.3757 24.4058C81.7196 24.3644 81.1721 24.3062 80.7311 24.2312H80.7442C80.3782 24.173 80.0421 24.0781 79.7351 23.9456C79.4441 23.804 79.232 23.6585 79.0996 23.5092C78.85 23.2604 78.6594 22.8944 78.5269 22.4128C78.4105 22.0063 78.3317 21.5078 78.2903 20.9183H92.2164C92.3412 20.9183 92.4407 20.8762 92.5157 20.7935Z" fill="#F37520"/>
<path d="M108.424 14.0797C107.951 13.6724 107.357 13.386 106.644 13.2199C105.979 13.079 105.003 13.0078 103.716 13.0078C103.268 13.0078 102.861 13.0124 102.495 13.0208C101.805 13.0369 101.241 13.0706 100.801 13.1204C100.112 13.1946 99.5469 13.3485 99.1066 13.5813C98.733 13.7719 98.4099 14.0008 98.1351 14.2657V13.5935C98.1351 13.4771 98.0937 13.3776 98.011 13.2949C97.9191 13.2115 97.8158 13.1701 97.6994 13.1701H95.669C95.561 13.1701 95.4661 13.2115 95.3826 13.2949C95.2999 13.3776 95.2578 13.4771 95.2578 13.5935V26.486C95.2578 26.6024 95.2999 26.7019 95.3826 26.7853C95.4661 26.868 95.561 26.9094 95.669 26.9094H97.6994C97.8158 26.9094 97.9191 26.868 98.011 26.7853C98.0937 26.7019 98.1351 26.6024 98.1351 26.486V20.5324C98.1351 19.7178 98.181 19.0042 98.2729 18.3894C98.364 17.7999 98.4964 17.3306 98.671 16.9822C98.7789 16.7655 98.8992 16.6002 99.0324 16.4838C99.174 16.359 99.3647 16.2426 99.6051 16.1346C99.8715 16.0267 100.183 15.9356 100.539 15.8606C101.097 15.7449 101.748 15.6699 102.495 15.637C102.802 15.6286 103.13 15.624 103.479 15.624C104.243 15.624 104.896 15.6822 105.435 15.7985C105.9 15.8981 106.232 16.0435 106.431 16.2349C106.614 16.4087 106.743 16.6415 106.818 16.9317V16.9447C106.909 17.3099 106.954 17.816 106.954 18.4645V19.3863C106.954 19.4942 106.996 19.5938 107.079 19.6849C107.162 19.7683 107.262 19.8097 107.379 19.8097H109.458C109.575 19.8097 109.675 19.7683 109.757 19.6849C109.849 19.5938 109.894 19.4942 109.894 19.3863V18.0526C109.878 17.1315 109.757 16.359 109.533 15.7365C109.293 15.0635 108.923 14.5115 108.424 14.0797Z" fill="#F37520"/>
<path d="M124.99 23.602C124.873 23.8011 124.678 23.9549 124.405 24.0629C124.097 24.1961 123.607 24.2957 122.935 24.3615C122.262 24.4197 121.374 24.4488 120.269 24.4488C118.293 24.4488 116.889 24.399 116.059 24.2995C115.784 24.275 115.565 24.2367 115.398 24.1869L115.211 24.1379C114.971 24.0131 114.796 23.8508 114.688 23.6518C114.564 23.4106 114.501 23.1242 114.501 22.792C114.501 22.4436 114.556 22.1404 114.663 21.8824C114.771 21.6672 114.921 21.5049 115.112 21.397C115.211 21.3388 115.361 21.289 115.56 21.2477C115.768 21.1895 116.034 21.1481 116.358 21.1229C117.013 21.0647 118.176 21.0364 119.845 21.0364C121.05 21.0364 121.992 21.0731 122.673 21.1481C123.412 21.2148 123.957 21.3143 124.305 21.4467C124.612 21.5631 124.84 21.7254 124.99 21.9329C125.131 22.132 125.202 22.4022 125.202 22.7422C125.202 23.0913 125.131 23.3777 124.99 23.602ZM128.154 17.6974C128.13 17.199 128.079 16.7542 128.005 16.3652C127.847 15.667 127.511 15.0606 126.996 14.5461H127.009C126.401 13.9313 125.575 13.5117 124.529 13.2874C124.023 13.1802 123.367 13.1052 122.561 13.0638C121.714 13.0057 120.763 12.9766 119.708 12.9766C118.28 12.9766 117.088 13.0386 116.133 13.1634C115.154 13.2958 114.381 13.4949 113.816 13.7606C113.226 14.0515 112.782 14.4627 112.484 14.9948C112.193 15.5177 112.047 16.1524 112.047 16.8997L112.085 17.5106C112.093 17.6186 112.139 17.7059 112.222 17.7717C112.297 17.8467 112.388 17.8843 112.496 17.8843H114.626C114.742 17.8843 114.843 17.8467 114.925 17.7717C115 17.689 115.037 17.5849 115.037 17.4609V17.2863C115.037 16.9127 115.099 16.6179 115.224 16.402C115.34 16.2022 115.515 16.0575 115.747 15.9656C115.847 15.9242 116.029 15.8745 116.296 15.8163L117.179 15.6915C117.877 15.6341 118.774 15.605 119.871 15.605C120.701 15.605 121.415 15.6256 122.013 15.667C122.586 15.7083 123.046 15.7627 123.396 15.8285H123.408C123.756 15.912 124.04 16.0154 124.255 16.1402C124.496 16.2734 124.683 16.4273 124.816 16.6011C124.974 16.7917 125.102 17.0658 125.202 17.4233C125.294 17.8054 125.339 18.2663 125.339 18.8061V19.329C125.222 19.2379 125.107 19.1552 124.99 19.0802C124.624 18.8643 124.218 18.7104 123.769 18.6193C123.337 18.5527 122.681 18.4945 121.801 18.4447C120.929 18.4034 119.825 18.3827 118.488 18.3827C117.491 18.3827 116.665 18.4034 116.009 18.4447C115.336 18.486 114.759 18.5527 114.277 18.6438C113.994 18.6935 113.738 18.7686 113.504 18.8681V18.8811C113.14 19.022 112.832 19.2042 112.583 19.4285C112.325 19.6613 112.11 19.9392 111.936 20.2631C111.645 20.8695 111.5 21.7002 111.5 22.7544C111.5 23.6104 111.595 24.2957 111.786 24.8102C111.985 25.3338 112.351 25.7817 112.883 26.1554C113.131 26.3468 113.446 26.5083 113.829 26.6415C114.178 26.7663 114.589 26.8575 115.062 26.9149C115.502 26.9646 116.129 27.0068 116.943 27.0397C117.998 27.0649 118.961 27.0772 119.833 27.0772C120.78 27.0772 121.619 27.0519 122.349 27.0029C123.096 26.9363 123.636 26.8575 123.968 26.7663C124.475 26.6163 124.936 26.3629 125.351 26.0061L125.339 26.4792C125.339 26.6033 125.376 26.7074 125.451 26.7908C125.551 26.8735 125.65 26.9149 125.749 26.9149H127.793C127.909 26.9149 128.009 26.8735 128.091 26.7908C128.175 26.7074 128.216 26.6079 128.216 26.4915V19.6904C128.216 18.9179 128.195 18.2541 128.154 17.6974Z" fill="#F37520"/>
</svg>
