<svg width="84" height="40" viewBox="0 0 84 40" fill="none" xmlns="http://www.w3.org/2000/svg">
<path d="M43.4084 14.9657C43.3616 19.1448 46.6958 21.4768 49.2074 22.8634C51.7878 24.2859 52.6546 25.1983 52.6443 26.4706C52.6251 28.4175 50.586 29.2769 48.6779 29.3103C45.3489 29.3687 43.4132 28.292 41.8744 27.4776L40.6752 33.8352C42.2191 34.6412 45.0779 35.3442 48.0424 35.375C55.0012 35.375 59.5538 31.4833 59.5784 25.4494C59.6057 17.7915 50.2291 17.3677 50.2932 13.9448C50.3153 12.9069 51.1894 11.7994 53.1049 11.5178C54.053 11.3755 56.6703 11.2666 59.6377 12.8148L60.8023 6.66365C59.2065 6.00535 57.1556 5.375 54.6021 5.375C48.0523 5.375 43.4456 9.31969 43.4084 14.9657ZM71.9934 5.90483C70.7227 5.90483 69.6519 6.74457 69.174 8.03322L59.2338 34.9232H66.1874L67.5712 30.5906H76.0684L76.8711 34.9232H83L77.6517 5.90483H71.9934ZM72.9662 13.7438L74.973 24.6405H69.477L72.9662 13.7438ZM34.9775 5.90519L29.4963 34.9228H36.1226L41.6012 5.90447H34.9775V5.90519ZM25.1749 5.90447L18.278 25.6559L15.4881 8.86208C15.1607 6.98735 13.8679 5.90483 12.4323 5.90483H1.15791L1 6.74748C3.31458 7.3165 5.94434 8.23427 7.53758 9.21627C8.51261 9.81614 8.79064 10.3405 9.11095 11.766L14.3951 34.9232H21.3975L32.1331 5.90483H25.1749" fill="url(#paint0_linear_1_10823)"/>
<defs>
<linearGradient id="paint0_linear_1_10823" x1="38.6987" y1="35.9768" x2="39.6823" y2="5.17329" gradientUnits="userSpaceOnUse">
<stop stop-color="#222357"/>
<stop offset="1" stop-color="#254AA5"/>
</linearGradient>
</defs>
</svg>
