<svg width="33" height="32" viewBox="0 0 33 32" fill="none" xmlns="http://www.w3.org/2000/svg">
<g clip-path="url(#clip0_1_28837)">
<path d="M16.5 0C7.66337 0 0.5 7.16337 0.5 16C0.5 24.8366 7.66337 32 16.5 32C25.3366 32 32.5 24.8366 32.5 16C32.5 7.16337 25.3366 0 16.5 0Z" fill="#40B3E0"/>
<path d="M24.2858 9.20142L21.4279 23.61C21.4279 23.61 21.0283 24.6093 19.9292 24.1297L13.3344 19.0737L10.9364 17.9147L6.89967 16.5557C6.89967 16.5557 6.28017 16.3359 6.22017 15.8563C6.16017 15.3767 6.91967 15.1169 6.91967 15.1169L22.9667 8.82192C22.9667 8.82192 24.2857 8.24242 24.2857 9.20167" fill="white"/>
<path d="M12.8268 23.449C12.8268 23.449 12.6343 23.431 12.3943 22.6715C12.1547 21.9121 10.9355 17.9154 10.9355 17.9154L20.6278 11.7604C20.6278 11.7604 21.1874 11.4206 21.1674 11.7604C21.1674 11.7604 21.2673 11.8204 20.9674 12.1001C20.6678 12.38 13.3537 18.9546 13.3537 18.9546" fill="#D2E5F1"/>
<path d="M15.8635 21.0128L13.2551 23.391C13.2551 23.391 13.0511 23.5457 12.8281 23.4487L13.3276 19.0312" fill="#B5CFE4"/>
</g>
<defs>
<clipPath id="clip0_1_28837">
<rect width="32" height="32" fill="white" transform="translate(0.5)"/>
</clipPath>
</defs>
</svg>
